<?xml version="1.1" encoding="UTF-8"?>
<svg t="1613743396896" class="icon" viewBox="0 0 1024 1024" version="1.1" xmlns="http://www.w3.org/2000/svg" p-id="638" width="200" height="200">
    <path d="M213.333333 42.666667l682.666667 0 0 938.666667-682.666667 0q-52.992 0-90.496-37.504t-37.504-90.496l0-682.666667q0-52.992 37.504-90.496t90.496-37.504zM810.666667 896l0-85.333333-597.333333 0q-17.664 0-30.165333 12.501333t-12.501333 30.165333 12.501333 30.165333 30.165333 12.501333l597.333333 0zM810.666667 725.333333l0-597.333333-597.333333 0q-17.664 0-30.165333 12.501333t-12.501333 30.165333l0 562.005333q20.992-7.338667 42.666667-7.338667l597.333333 0z" p-id="639" fill="#515151"></path>
</svg>